<svg width="122" height="122" viewBox="0 0 122 122" fill="none" xmlns="http://www.w3.org/2000/svg">
<rect width="122" height="122" rx="10" fill="#36D8D3"/>
<path d="M80.6429 61.5001H52.9643V50.4249C52.9643 46.171 56.5022 42.6368 60.9219 42.5938C65.3862 42.5509 69.0357 46.0421 69.0357 50.3282V52.0469C69.0357 53.4757 70.2299 54.6251 71.7143 54.6251H75.2857C76.7701 54.6251 77.9643 53.4757 77.9643 52.0469V50.3282C77.9643 41.3048 70.3192 33.9679 60.9442 34.0001C51.5692 34.0323 44.0357 41.4659 44.0357 50.4893V61.5001H41.3571C38.3996 61.5001 36 63.8096 36 66.6563V83.8438C36 86.6904 38.3996 89 41.3571 89H80.6429C83.6004 89 86 86.6904 86 83.8438V66.6563C86 63.8096 83.6004 61.5001 80.6429 61.5001ZM65.4643 77.8281C65.4643 80.2022 63.4665 82.125 61 82.125C58.5335 82.125 56.5357 80.2022 56.5357 77.8281V72.6719C56.5357 70.2979 58.5335 68.375 61 68.375C63.4665 68.375 65.4643 70.2979 65.4643 72.6719V77.8281Z" fill="#555555"/>
</svg>
