<svg width="122" height="122" viewBox="0 0 122 122" fill="none" xmlns="http://www.w3.org/2000/svg">
<rect width="122" height="122" rx="10" fill="#36D8D3"/>
<path d="M50.8262 85.7927C50.8275 86.5789 51.0759 87.3489 51.5419 88.0039L53.8238 91.215C54.2136 91.764 54.7423 92.2142 55.3629 92.5256C55.9835 92.837 56.6767 93 57.3808 93H65.6205C66.3246 93 67.0178 92.837 67.6384 92.5256C68.259 92.2142 68.7877 91.764 69.1776 91.215L71.4595 88.0039C71.9253 87.3488 72.1742 86.5796 72.1751 85.7927L72.1805 80.999H50.8195L50.8262 85.7927ZM38 50.9996C38 56.5458 40.1964 61.6057 43.8163 65.4718C46.022 67.828 49.4723 72.7504 50.7875 76.9028C50.7928 76.9353 50.7968 76.9678 50.8022 77.0003H72.1978C72.2032 76.9678 72.2072 76.9366 72.2125 76.9028C73.5277 72.7504 76.978 67.828 79.1838 65.4718C82.8036 61.6057 85 56.5458 85 50.9996C85 38.8261 74.4397 28.9626 61.4266 29.0001C47.8059 29.0389 38 39.3711 38 50.9996ZM61.5 40.9999C55.6103 40.9999 50.8182 45.486 50.8182 50.9996C50.8182 52.1046 49.8622 52.9996 48.6818 52.9996C47.5015 52.9996 46.5455 52.1046 46.5455 50.9996C46.5455 43.2798 53.2536 36.9999 61.5 36.9999C62.6803 36.9999 63.6364 37.8949 63.6364 38.9999C63.6364 40.1049 62.6803 40.9999 61.5 40.9999Z" fill="#555555"/>
</svg>
