<svg width="122" height="122" viewBox="0 0 122 122" fill="none" xmlns="http://www.w3.org/2000/svg">
<rect width="122" height="122" rx="10" fill="#36D8D3"/>
<path d="M88.125 47.7143H33.875C31.7349 47.7143 30 45.7315 30 43.2857V34.4286C30 31.9828 31.7349 30 33.875 30H88.125C90.2651 30 92 31.9828 92 34.4286V43.2857C92 45.7315 90.2651 47.7143 88.125 47.7143ZM82.3125 35.5357C80.7074 35.5357 79.4062 37.0227 79.4062 38.8571C79.4062 40.6915 80.7074 42.1786 82.3125 42.1786C83.9176 42.1786 85.2188 40.6915 85.2188 38.8571C85.2188 37.0227 83.9176 35.5357 82.3125 35.5357ZM74.5625 35.5357C72.9574 35.5357 71.6562 37.0227 71.6562 38.8571C71.6562 40.6915 72.9574 42.1786 74.5625 42.1786C76.1676 42.1786 77.4688 40.6915 77.4688 38.8571C77.4688 37.0227 76.1676 35.5357 74.5625 35.5357ZM88.125 69.8571H33.875C31.7349 69.8571 30 67.8744 30 65.4286V56.5714C30 54.1256 31.7349 52.1429 33.875 52.1429H88.125C90.2651 52.1429 92 54.1256 92 56.5714V65.4286C92 67.8744 90.2651 69.8571 88.125 69.8571ZM82.3125 57.6786C80.7074 57.6786 79.4062 59.1656 79.4062 61C79.4062 62.8344 80.7074 64.3214 82.3125 64.3214C83.9176 64.3214 85.2188 62.8344 85.2188 61C85.2188 59.1656 83.9176 57.6786 82.3125 57.6786ZM74.5625 57.6786C72.9574 57.6786 71.6562 59.1656 71.6562 61C71.6562 62.8344 72.9574 64.3214 74.5625 64.3214C76.1676 64.3214 77.4688 62.8344 77.4688 61C77.4688 59.1656 76.1676 57.6786 74.5625 57.6786ZM88.125 92H33.875C31.7349 92 30 90.0173 30 87.5714V78.7143C30 76.2685 31.7349 74.2857 33.875 74.2857H88.125C90.2651 74.2857 92 76.2685 92 78.7143V87.5714C92 90.0173 90.2651 92 88.125 92ZM82.3125 79.8214C80.7074 79.8214 79.4062 81.3085 79.4062 83.1429C79.4062 84.9773 80.7074 86.4643 82.3125 86.4643C83.9176 86.4643 85.2188 84.9773 85.2188 83.1429C85.2188 81.3085 83.9176 79.8214 82.3125 79.8214ZM74.5625 79.8214C72.9574 79.8214 71.6562 81.3085 71.6562 83.1429C71.6562 84.9773 72.9574 86.4643 74.5625 86.4643C76.1676 86.4643 77.4688 84.9773 77.4688 83.1429C77.4688 81.3085 76.1676 79.8214 74.5625 79.8214Z" fill="#555555"/>
</svg>
