<svg width="150" height="47" viewBox="0 0 150 47" fill="none" xmlns="http://www.w3.org/2000/svg">
<rect y="0.0865479" width="150" height="46.7141" rx="10" fill="#36D8D3"/>
<path d="M38.824 27.1665H36.52L32.936 22.6705L32.008 23.7585V27.1665H30.136V16.4945H32.008V21.5825L36.184 16.4945H38.504L34.168 21.5345L38.824 27.1665ZM46.9215 27.1665H45.2415V22.3345C45.2415 21.2678 44.7242 20.7345 43.6895 20.7345C43.2842 20.7345 42.9055 20.8358 42.5535 21.0385C42.2015 21.2412 41.9188 21.4865 41.7055 21.7745V27.1665H40.0255V19.4385H41.7055V20.4945C41.9935 20.1532 42.3775 19.8598 42.8575 19.6145C43.3375 19.3692 43.8602 19.2465 44.4255 19.2465C45.2468 19.2465 45.8655 19.4598 46.2815 19.8865C46.7082 20.3132 46.9215 20.9265 46.9215 21.7265V27.1665ZM52.5916 27.3585C51.397 27.3585 50.437 26.9692 49.7116 26.1905C48.9863 25.4012 48.6236 24.4358 48.6236 23.2945C48.6236 22.1532 48.9863 21.1932 49.7116 20.4145C50.437 19.6358 51.397 19.2465 52.5916 19.2465C53.797 19.2465 54.7623 19.6358 55.4876 20.4145C56.213 21.1932 56.5756 22.1532 56.5756 23.2945C56.5756 24.4465 56.213 25.4118 55.4876 26.1905C54.7623 26.9692 53.797 27.3585 52.5916 27.3585ZM52.5916 25.8705C53.285 25.8705 53.829 25.6252 54.2236 25.1345C54.629 24.6332 54.8316 24.0198 54.8316 23.2945C54.8316 22.5798 54.629 21.9772 54.2236 21.4865C53.829 20.9852 53.285 20.7345 52.5916 20.7345C51.909 20.7345 51.365 20.9852 50.9596 21.4865C50.565 21.9772 50.3676 22.5798 50.3676 23.2945C50.3676 24.0198 50.565 24.6332 50.9596 25.1345C51.365 25.6252 51.909 25.8705 52.5916 25.8705ZM66.7715 27.1665H65.0115L63.2195 21.5025L61.4275 27.1665H59.6675L57.2675 19.4385H59.0115L60.6435 25.0545L62.4835 19.4385H63.9555L65.7955 25.0545L67.4275 19.4385H69.1715L66.7715 27.1665ZM85.5834 27.1665H83.7114V19.2465L80.4314 27.1665H79.6314L76.3674 19.2465V27.1665H74.4954V16.4945H77.1354L80.0314 23.5185L82.9434 16.4945H85.5834V27.1665ZM91.2948 27.3585C90.1001 27.3585 89.1401 26.9692 88.4148 26.1905C87.6894 25.4012 87.3268 24.4358 87.3268 23.2945C87.3268 22.1532 87.6894 21.1932 88.4148 20.4145C89.1401 19.6358 90.1001 19.2465 91.2948 19.2465C92.5001 19.2465 93.4654 19.6358 94.1908 20.4145C94.9161 21.1932 95.2788 22.1532 95.2788 23.2945C95.2788 24.4465 94.9161 25.4118 94.1908 26.1905C93.4654 26.9692 92.5001 27.3585 91.2948 27.3585ZM91.2948 25.8705C91.9881 25.8705 92.5321 25.6252 92.9268 25.1345C93.3321 24.6332 93.5348 24.0198 93.5348 23.2945C93.5348 22.5798 93.3321 21.9772 92.9268 21.4865C92.5321 20.9852 91.9881 20.7345 91.2948 20.7345C90.6121 20.7345 90.0681 20.9852 89.6628 21.4865C89.2681 21.9772 89.0707 22.5798 89.0707 23.2945C89.0707 24.0198 89.2681 24.6332 89.6628 25.1345C90.0681 25.6252 90.6121 25.8705 91.2948 25.8705ZM98.6586 27.1665H96.9786V19.4385H98.6586V20.5745C98.9573 20.1905 99.3306 19.8758 99.7786 19.6305C100.227 19.3852 100.691 19.2625 101.171 19.2625V20.9265C101.021 20.8945 100.845 20.8785 100.643 20.8785C100.291 20.8785 99.912 20.9852 99.5066 21.1985C99.112 21.4012 98.8293 21.6358 98.6586 21.9025V27.1665ZM106.094 27.3585C104.92 27.3585 103.95 26.9852 103.182 26.2385C102.424 25.4812 102.046 24.4998 102.046 23.2945C102.046 22.1638 102.414 21.2092 103.15 20.4305C103.896 19.6412 104.835 19.2465 105.966 19.2465C107.107 19.2465 108.024 19.6412 108.718 20.4305C109.422 21.2198 109.774 22.2278 109.774 23.4545V23.8545H103.806C103.87 24.4625 104.12 24.9692 104.558 25.3745C104.995 25.7798 105.566 25.9825 106.27 25.9825C106.664 25.9825 107.059 25.9078 107.454 25.7585C107.859 25.6092 108.195 25.4012 108.462 25.1345L109.23 26.2385C108.451 26.9852 107.406 27.3585 106.094 27.3585ZM108.142 22.6705C108.12 22.1372 107.923 21.6625 107.55 21.2465C107.187 20.8305 106.659 20.6225 105.966 20.6225C105.304 20.6225 104.787 20.8305 104.414 21.2465C104.04 21.6518 103.832 22.1265 103.789 22.6705H108.142Z" fill="#02407B"/>
</svg>
