<svg width="150" height="50" viewBox="0 0 150 50" fill="none" xmlns="http://www.w3.org/2000/svg">
<rect width="150" height="50" rx="10" fill="#36D8D3"/>
<path d="M31.5 29V17.5781H33.375V27.4062H38.2266V29H31.5ZM43.4609 20.1875C44.2318 20.1875 44.8932 20.3464 45.4453 20.6641C45.9974 20.9818 46.4219 21.4323 46.7188 22.0156C47.0156 22.599 47.1641 23.2969 47.1641 24.1094V25.0938H41.3906C41.4115 25.9323 41.6354 26.5781 42.0625 27.0312C42.4948 27.4844 43.099 27.7109 43.875 27.7109C44.4271 27.7109 44.9219 27.6589 45.3594 27.5547C45.8021 27.4453 46.2578 27.2865 46.7266 27.0781V28.5703C46.2943 28.7734 45.8542 28.9219 45.4062 29.0156C44.9583 29.1094 44.4219 29.1562 43.7969 29.1562C42.9479 29.1562 42.2005 28.9922 41.5547 28.6641C40.9141 28.3307 40.4115 27.8359 40.0469 27.1797C39.6875 26.5234 39.5078 25.7083 39.5078 24.7344C39.5078 23.7656 39.6719 22.9427 40 22.2656C40.3281 21.5885 40.7891 21.0729 41.3828 20.7188C41.9766 20.3646 42.6693 20.1875 43.4609 20.1875ZM43.4609 21.5703C42.8828 21.5703 42.4141 21.7578 42.0547 22.1328C41.7005 22.5078 41.4922 23.0573 41.4297 23.7812H45.3672C45.362 23.349 45.2891 22.9661 45.1484 22.6328C45.013 22.2995 44.8047 22.0391 44.5234 21.8516C44.2474 21.6641 43.8932 21.5703 43.4609 21.5703ZM52.625 20.1875C53.7188 20.1875 54.5443 20.4297 55.1016 20.9141C55.6641 21.3984 55.9453 22.1536 55.9453 23.1797V29H54.6406L54.2891 27.7734H54.2266C53.9818 28.0859 53.7292 28.3438 53.4688 28.5469C53.2083 28.75 52.9062 28.901 52.5625 29C52.224 29.1042 51.8099 29.1562 51.3203 29.1562C50.8047 29.1562 50.3438 29.0625 49.9375 28.875C49.5312 28.6823 49.2109 28.3906 48.9766 28C48.7422 27.6094 48.625 27.1146 48.625 26.5156C48.625 25.625 48.9557 24.9557 49.6172 24.5078C50.2839 24.0599 51.2891 23.8125 52.6328 23.7656L54.1328 23.7109V23.2578C54.1328 22.6589 53.9922 22.2318 53.7109 21.9766C53.4349 21.7214 53.0443 21.5938 52.5391 21.5938C52.1068 21.5938 51.6875 21.6562 51.2812 21.7812C50.875 21.9062 50.4792 22.0599 50.0938 22.2422L49.5 20.9453C49.9219 20.7214 50.401 20.5391 50.9375 20.3984C51.4792 20.2578 52.0417 20.1875 52.625 20.1875ZM54.125 24.8672L53.0078 24.9062C52.0911 24.9375 51.4479 25.0938 51.0781 25.375C50.7083 25.6562 50.5234 26.0417 50.5234 26.5312C50.5234 26.9583 50.651 27.2708 50.9062 27.4688C51.1615 27.6615 51.4974 27.7578 51.9141 27.7578C52.5495 27.7578 53.0755 27.5781 53.4922 27.2188C53.9141 26.8542 54.125 26.3203 54.125 25.6172V24.8672ZM62.8984 20.1875C63.0443 20.1875 63.2031 20.1953 63.375 20.2109C63.5469 20.2266 63.6953 20.2474 63.8203 20.2734L63.6484 21.9922C63.5391 21.9609 63.4036 21.9375 63.2422 21.9219C63.0859 21.9062 62.9453 21.8984 62.8203 21.8984C62.4922 21.8984 62.1797 21.9531 61.8828 22.0625C61.5859 22.1667 61.3229 22.3281 61.0938 22.5469C60.8646 22.7604 60.6849 23.0286 60.5547 23.3516C60.4245 23.6745 60.3594 24.0495 60.3594 24.4766V29H58.5156V20.3516H59.9531L60.2031 21.875H60.2891C60.4609 21.5677 60.6745 21.2865 60.9297 21.0312C61.1849 20.776 61.4766 20.5729 61.8047 20.4219C62.138 20.2656 62.5026 20.1875 62.8984 20.1875ZM69.9297 20.1875C70.9036 20.1875 71.6615 20.4401 72.2031 20.9453C72.75 21.4453 73.0234 22.25 73.0234 23.3594V29H71.1875V23.7031C71.1875 23.0312 71.0495 22.5286 70.7734 22.1953C70.4974 21.8568 70.0703 21.6875 69.4922 21.6875C68.6536 21.6875 68.0703 21.9453 67.7422 22.4609C67.4193 22.9766 67.2578 23.724 67.2578 24.7031V29H65.4219V20.3516H66.8516L67.1094 21.5234H67.2109C67.3984 21.2214 67.6302 20.974 67.9062 20.7812C68.1875 20.5833 68.5 20.4349 68.8438 20.3359C69.1927 20.237 69.5547 20.1875 69.9297 20.1875ZM84.8672 29L81.5781 19.4609H81.5078C81.5234 19.6745 81.5417 19.9661 81.5625 20.3359C81.5833 20.7057 81.6016 21.1016 81.6172 21.5234C81.6328 21.9453 81.6406 22.349 81.6406 22.7344V29H79.9375V17.5781H82.5703L85.7344 26.6953H85.7812L89.0547 17.5781H91.6797V29H89.8906V22.6406C89.8906 22.2917 89.8958 21.9141 89.9062 21.5078C89.9219 21.1016 89.9375 20.7161 89.9531 20.3516C89.974 19.987 89.9896 19.6953 90 19.4766H89.9375L86.5234 29H84.8672ZM102.156 24.6562C102.156 25.375 102.062 26.013 101.875 26.5703C101.688 27.1276 101.414 27.599 101.055 27.9844C100.695 28.3646 100.263 28.6562 99.7578 28.8594C99.2526 29.0573 98.6823 29.1562 98.0469 29.1562C97.4531 29.1562 96.9089 29.0573 96.4141 28.8594C95.9193 28.6562 95.4896 28.3646 95.125 27.9844C94.7656 27.599 94.487 27.1276 94.2891 26.5703C94.0911 26.013 93.9922 25.375 93.9922 24.6562C93.9922 23.7031 94.1562 22.8958 94.4844 22.2344C94.8177 21.5677 95.2917 21.0599 95.9062 20.7109C96.5208 20.362 97.2526 20.1875 98.1016 20.1875C98.8984 20.1875 99.6016 20.362 100.211 20.7109C100.82 21.0599 101.297 21.5677 101.641 22.2344C101.984 22.901 102.156 23.7083 102.156 24.6562ZM95.8828 24.6562C95.8828 25.2865 95.9583 25.8255 96.1094 26.2734C96.2656 26.7214 96.5052 27.0651 96.8281 27.3047C97.151 27.5391 97.5677 27.6562 98.0781 27.6562C98.5885 27.6562 99.0052 27.5391 99.3281 27.3047C99.651 27.0651 99.888 26.7214 100.039 26.2734C100.19 25.8255 100.266 25.2865 100.266 24.6562C100.266 24.026 100.19 23.4922 100.039 23.0547C99.888 22.612 99.651 22.276 99.3281 22.0469C99.0052 21.8125 98.5859 21.6953 98.0703 21.6953C97.3099 21.6953 96.7552 21.9505 96.4062 22.4609C96.0573 22.9714 95.8828 23.7031 95.8828 24.6562ZM108.648 20.1875C108.794 20.1875 108.953 20.1953 109.125 20.2109C109.297 20.2266 109.445 20.2474 109.57 20.2734L109.398 21.9922C109.289 21.9609 109.154 21.9375 108.992 21.9219C108.836 21.9062 108.695 21.8984 108.57 21.8984C108.242 21.8984 107.93 21.9531 107.633 22.0625C107.336 22.1667 107.073 22.3281 106.844 22.5469C106.615 22.7604 106.435 23.0286 106.305 23.3516C106.174 23.6745 106.109 24.0495 106.109 24.4766V29H104.266V20.3516H105.703L105.953 21.875H106.039C106.211 21.5677 106.424 21.2865 106.68 21.0312C106.935 20.776 107.227 20.5729 107.555 20.4219C107.888 20.2656 108.253 20.1875 108.648 20.1875ZM114.617 20.1875C115.388 20.1875 116.049 20.3464 116.602 20.6641C117.154 20.9818 117.578 21.4323 117.875 22.0156C118.172 22.599 118.32 23.2969 118.32 24.1094V25.0938H112.547C112.568 25.9323 112.792 26.5781 113.219 27.0312C113.651 27.4844 114.255 27.7109 115.031 27.7109C115.583 27.7109 116.078 27.6589 116.516 27.5547C116.958 27.4453 117.414 27.2865 117.883 27.0781V28.5703C117.451 28.7734 117.01 28.9219 116.562 29.0156C116.115 29.1094 115.578 29.1562 114.953 29.1562C114.104 29.1562 113.357 28.9922 112.711 28.6641C112.07 28.3307 111.568 27.8359 111.203 27.1797C110.844 26.5234 110.664 25.7083 110.664 24.7344C110.664 23.7656 110.828 22.9427 111.156 22.2656C111.484 21.5885 111.945 21.0729 112.539 20.7188C113.133 20.3646 113.826 20.1875 114.617 20.1875ZM114.617 21.5703C114.039 21.5703 113.57 21.7578 113.211 22.1328C112.857 22.5078 112.648 23.0573 112.586 23.7812H116.523C116.518 23.349 116.445 22.9661 116.305 22.6328C116.169 22.2995 115.961 22.0391 115.68 21.8516C115.404 21.6641 115.049 21.5703 114.617 21.5703Z" fill="#02407B"/>
</svg>
