<svg width="122" height="122" viewBox="0 0 122 122" fill="none" xmlns="http://www.w3.org/2000/svg">
<rect width="122" height="122" rx="10" fill="#36D8D3"/>
<path d="M61.0138 59.745C59.4092 59.745 58.1075 61.0875 58.1075 62.745C58.2455 71.7762 57.1218 80.4825 54.7531 89.1887C54.4225 90.4037 55.0135 93 57.5529 93C58.8219 93 59.9881 92.135 60.3489 90.81C61.9874 84.8212 64.1077 75.1337 63.9188 62.745C63.92 61.0887 62.6195 59.745 61.0138 59.745ZM60.9096 49.5287C53.4913 49.52 48.3145 55.4125 48.4174 62.165C48.5083 68.1575 47.9633 74.1537 46.7984 79.9837C46.4726 81.6062 47.485 83.195 49.0556 83.5287C50.6359 83.8625 52.1641 82.8212 52.4899 81.1987C53.742 74.9375 54.3269 68.5012 54.23 62.0712C54.1804 58.8275 56.6422 55.51 60.8236 55.5287C64.6151 55.5875 67.7442 58.6962 67.8011 62.4625C67.8944 68.4687 67.4609 74.5037 66.5163 80.4062C66.2535 82.0387 67.3265 83.5837 68.9092 83.8537C71.3274 84.27 72.1557 81.9662 72.249 81.3825C73.2516 75.1287 73.7094 68.7312 73.6137 62.3687C73.5071 55.3937 67.8084 49.6337 60.9096 49.5287ZM47.5056 47.0562C46.2583 46.0137 44.4334 46.2062 43.4174 47.4912C40.315 51.4287 38.6475 56.4012 38.725 61.4912C38.7964 66.1887 38.4259 70.9 37.6218 75.4975C37.3384 77.1287 38.3859 78.6887 39.9662 78.9837C42.4014 79.4212 43.2443 77.1325 43.3435 76.5637C44.2142 71.5837 44.615 66.4812 44.5375 61.3975C44.4806 57.6625 45.6516 54.1625 47.9282 51.2762C48.9394 49.9912 48.7505 48.1025 47.5056 47.0562ZM60.7619 39.265C58.8958 39.2137 57.0237 39.445 55.2181 39.8862C53.6572 40.2687 52.6909 41.8837 53.059 43.4975C53.4296 45.1087 54.9965 46.1012 56.5575 45.7262C57.8956 45.4 59.2785 45.255 60.6747 45.265C69.8089 45.4062 77.3531 52.9525 77.4924 62.0875C77.5638 66.8225 77.3374 71.6012 76.8167 76.2912C76.635 77.9375 77.7794 79.4263 79.373 79.6138C81.3977 79.8575 82.4621 78.1287 82.5917 76.975C83.1419 72.0023 83.3802 66.9981 83.305 61.9937C83.116 49.65 73.0034 39.4525 60.7619 39.265ZM91.2863 54.4462C90.94 52.8312 89.4081 51.7962 87.8218 52.1625C86.2548 52.52 85.2643 54.12 85.6106 55.7387C86.181 58.415 86.2052 60.415 86.1798 63.4387C86.1664 65.0975 87.4573 66.45 89.0618 66.4637H89.086C90.6809 66.4637 91.979 65.1375 91.9923 63.4887C92.0141 60.7162 92.0408 57.975 91.2863 54.4462ZM86.428 43.1062C80.5307 34.4325 70.8806 29.1612 60.6129 29.0025C52.1617 28.8975 44.345 32.1137 38.5312 38.1175C32.916 43.9212 29.8899 51.63 30.0158 59.8312L30.0013 62.515C29.9541 64.1712 31.2159 65.5537 32.8204 65.6012C32.8482 65.6037 32.8785 65.6037 32.9076 65.6037C34.4721 65.6037 35.7642 64.3162 35.8102 62.6912L35.8296 59.7362C35.7291 53.1737 38.1498 47.0037 42.6448 42.3612C47.3385 37.5112 53.7057 34.9025 60.5282 35.0037C68.9382 35.1325 76.8433 39.4487 81.6738 46.5525C82.5953 47.91 84.4057 48.2337 85.7208 47.285C87.0335 46.3325 87.3507 44.4612 86.428 43.1062Z" fill="#555555"/>
</svg>
